<?xml version="1.0" encoding="UTF-8" standalone="no"?>
<svg width="64" height="64" viewBox="0 0 64 64" xmlns="http://www.w3.org/2000/svg">
  <!-- 배경: 하늘 -->
  <rect x="0" y="0" width="64" height="40" fill="#87CEEB"/>
  
  <!-- 땅 -->
  <rect x="0" y="40" width="64" height="24" fill="#8B4513"/>
  
  <!-- 경작지 -->
  <rect x="8" y="36" width="48" height="16" fill="#654321"/>
  
  <!-- 경작된 줄 -->
  <rect x="10" y="40" width="44" height="2" fill="#5D4037"/>
  <rect x="10" y="44" width="44" height="2" fill="#5D4037"/>
  <rect x="10" y="48" width="44" height="2" fill="#5D4037"/>
  
  <!-- 식물 1 -->
  <rect x="14" y="32" width="2" height="4" fill="#228B22"/>
  <rect x="12" y="30" width="6" height="2" fill="#228B22"/>
  <circle cx="15" cy="28" r="2" fill="#FF6347"/>
  
  <!-- 식물 2 -->
  <rect x="32" y="34" width="2" height="2" fill="#228B22"/>
  <rect x="30" y="32" width="6" height="2" fill="#228B22"/>
  <rect x="28" y="30" width="10" height="2" fill="#228B22"/>
  
  <!-- 식물 3 -->
  <rect x="48" y="32" width="2" height="4" fill="#228B22"/>
  <rect x="46" y="30" width="6" height="2" fill="#228B22"/>
  <circle cx="49" cy="28" r="2" fill="#FFFF00"/>
  
  <!-- 태양 -->
  <circle cx="54" cy="10" r="6" fill="#FFFF00"/>
</svg> 